<svg xmlns="http://www.w3.org/2000/svg" width="512" height="512" viewBox="0 0 512 512" version="1.1"><path d="M 185.478 298.500 C 185.478 345.250, 185.600 364.229, 185.750 340.675 C 185.899 317.121, 185.899 278.871, 185.750 255.675 C 185.600 232.479, 185.478 251.750, 185.478 298.500" stroke="none" fill="#2c74b4" fill-rule="evenodd"/><path d="M 229 1.108 C 225.425 1.591, 220.925 2.193, 219 2.445 C 217.075 2.697, 214.375 3.143, 213 3.435 C 211.625 3.727, 209.375 4.206, 208 4.500 C 206.625 4.794, 204.375 5.273, 203 5.566 C 201.625 5.859, 198.975 6.313, 197.111 6.576 C 195.247 6.839, 193.222 7.368, 192.611 7.751 C 192 8.135, 190.375 8.603, 189 8.791 C 180.741 9.921, 145.811 23.564, 143.765 26.460 C 143.361 27.032, 143.024 27.157, 143.015 26.737 C 142.999 25.944, 128.879 32.727, 128 33.950 C 127.725 34.333, 126.825 34.968, 126 35.362 C 123.682 36.469, 120.757 38.286, 117.325 40.750 C 115.601 41.987, 113.753 43, 113.218 43 C 112.683 43, 111.662 43.703, 110.949 44.562 C 110.236 45.421, 107.368 47.649, 104.576 49.513 C 101.784 51.376, 98.010 54.273, 96.188 55.951 C 94.367 57.628, 92.479 59, 91.992 59 C 90.220 59, 59.928 90.075, 60.616 91.187 C 61.040 91.873, 60.858 92.030, 60.147 91.591 C 59.479 91.178, 58.697 91.625, 58.307 92.642 C 57.622 94.426, 56.754 95.581, 51.766 101.342 C 50.262 103.079, 49.025 105.014, 49.016 105.643 C 49.007 106.272, 48.325 107.045, 47.500 107.362 C 46.675 107.678, 46 108.626, 46 109.469 C 46 110.311, 45.575 111, 45.055 111 C 44.121 111, 41.656 114.848, 40.408 118.250 C 40.055 119.212, 39.369 120, 38.883 120 C 38.398 120, 38 120.480, 38 121.067 C 38 121.653, 36.910 123.566, 35.579 125.317 C 34.247 127.068, 33.009 129.175, 32.829 130 C 32.648 130.825, 32.221 131.725, 31.879 132 C 30.880 132.804, 24.916 145, 25.522 145 C 25.824 145, 24.931 146.679, 23.536 148.732 C 22.141 150.785, 21 152.854, 21 153.331 C 21 153.808, 20.345 155.616, 19.545 157.349 C 15.735 165.598, 8.795 186.997, 7.652 194.018 C 7.516 194.852, 7.044 196.120, 6.603 196.834 C 6.161 197.549, 6.066 198.399, 6.391 198.725 C 6.716 199.050, 6.472 199.931, 5.849 200.682 C 5.225 201.434, 4.970 202.304, 5.282 202.616 C 5.594 202.927, 5.249 205.176, 4.516 207.612 C 3.783 210.049, 3.309 212.820, 3.462 213.771 C 3.615 214.722, 3.474 215.950, 3.149 216.500 C 0.735 220.575, -0.546 268.136, 1.344 283.500 C 1.750 286.800, 2.241 290.850, 2.434 292.500 C 2.628 294.150, 3.320 298.200, 3.972 301.500 C 4.624 304.800, 5.183 308.175, 5.215 309 C 5.247 309.825, 5.716 311.063, 6.259 311.750 C 6.801 312.437, 6.976 313, 6.647 313 C 6.318 313, 6.460 314.079, 6.961 315.398 C 7.463 316.717, 8.162 319.755, 8.514 322.148 C 8.867 324.542, 9.573 326.651, 10.084 326.835 C 10.595 327.020, 10.797 327.520, 10.533 327.946 C 9.285 329.966, 24.168 368, 26.207 368 C 26.708 368, 26.840 368.450, 26.500 369 C 26.160 369.550, 26.359 370, 26.941 370 C 27.523 370, 27.911 370.338, 27.802 370.750 C 27.430 372.157, 29.132 376, 30.126 376 C 30.672 376, 30.862 376.414, 30.550 376.919 C 30.237 377.425, 30.693 378.550, 31.562 379.419 C 32.432 380.289, 32.773 381.007, 32.321 381.015 C 31.870 381.024, 31.973 381.361, 32.552 381.765 C 33.131 382.169, 34.360 384.126, 35.284 386.112 C 36.207 388.099, 37.646 390.292, 38.482 390.985 C 39.317 391.678, 40 392.780, 40 393.434 C 40 394.088, 40.918 395.608, 42.039 396.811 C 43.160 398.015, 43.803 399, 43.468 399 C 43.132 399, 43.452 399.659, 44.179 400.465 C 47.111 403.717, 48 404.956, 48 405.791 C 48 406.273, 49.728 408.539, 51.840 410.827 C 53.952 413.115, 55.549 415.117, 55.389 415.278 C 55.229 415.438, 57.326 417.992, 60.049 420.954 C 62.772 423.916, 65 426.560, 65 426.830 C 65 427.496, 84.598 447, 85.267 447 C 85.560 447, 87.328 448.462, 89.196 450.250 C 93.604 454.469, 97 457.137, 97 456.379 C 97 456.049, 97.885 456.841, 98.967 458.139 C 100.048 459.438, 100.948 460.183, 100.967 459.795 C 100.985 459.408, 102.039 460.083, 103.308 461.295 C 104.577 462.508, 106.658 464.175, 107.931 465 C 109.204 465.825, 110.752 466.955, 111.373 467.512 C 112.320 468.363, 118.441 472.254, 127.500 477.765 C 133.139 481.196, 138.826 483.840, 139.378 483.288 C 139.720 482.946, 140 483.218, 140 483.892 C 140 484.566, 140.450 484.840, 141 484.500 C 141.550 484.160, 142 484.313, 142 484.841 C 142 485.368, 144.250 486.608, 147 487.597 C 149.750 488.586, 152 489.756, 152 490.198 C 152 490.639, 152.591 491, 153.313 491 C 154.035 491, 157.010 492.150, 159.924 493.556 C 162.838 494.962, 165.468 495.865, 165.769 495.565 C 166.070 495.264, 166.807 495.394, 167.408 495.855 C 170.645 498.339, 196.496 505.890, 207.500 507.566 C 210.250 507.984, 213.175 508.509, 214 508.732 C 214.825 508.955, 217.300 509.326, 219.500 509.556 C 221.700 509.786, 226.200 510.317, 229.500 510.737 C 237.261 511.724, 274.718 511.726, 282.500 510.740 C 285.800 510.322, 290.486 509.786, 292.914 509.550 C 295.342 509.314, 299.617 508.552, 302.414 507.857 C 305.211 507.161, 307.885 506.700, 308.355 506.831 C 308.826 506.963, 309.767 506.608, 310.447 506.044 C 311.127 505.479, 311.932 505.265, 312.235 505.568 C 312.702 506.035, 315.431 505.428, 326 502.508 C 341.231 498.298, 357.010 492.018, 372.629 483.950 C 389.592 475.187, 390 474.951, 390 473.927 C 390 473.417, 390.337 473.081, 390.750 473.180 C 391.809 473.435, 397.986 469.657, 397.994 468.750 C 397.997 468.337, 398.640 468, 399.423 468 C 400.206 468, 402.135 466.711, 403.711 465.136 C 405.286 463.560, 407.977 461.546, 409.690 460.660 C 411.403 459.774, 414.487 457.463, 416.543 455.525 C 418.598 453.586, 420.495 452, 420.758 452 C 421.781 452, 428.486 445.558, 428.250 444.802 C 428.113 444.361, 428.499 444, 429.109 444 C 430.170 444, 443.251 431.089, 449.456 423.917 C 456.874 415.343, 461 410.053, 461 409.117 C 461 408.557, 461.602 407.740, 462.338 407.300 C 463.883 406.376, 476 388.526, 476 387.173 C 476 386.676, 476.941 385.073, 478.092 383.610 C 479.243 382.147, 480.272 380.354, 480.379 379.625 C 480.486 378.897, 481.277 377.220, 482.137 375.900 C 483.534 373.757, 490.182 360.258, 490.460 359 C 490.521 358.725, 491.115 357.522, 491.780 356.326 C 492.445 355.130, 493.147 353.330, 493.340 352.326 C 493.533 351.322, 494.655 348.338, 495.833 345.695 C 497.586 341.764, 499.623 335.747, 501.654 328.500 C 501.809 327.950, 502.853 324.350, 503.976 320.500 C 505.098 316.650, 505.802 312.938, 505.540 312.250 C 505.277 311.563, 505.527 311, 506.094 311 C 506.662 311, 506.996 310.212, 506.838 309.250 C 506.679 308.288, 506.828 307.050, 507.168 306.500 C 507.972 305.197, 509.481 294.627, 510.506 283.111 C 510.770 280.148, 511.404 277.218, 511.916 276.601 C 512.428 275.985, 512.842 265.846, 512.837 254.071 C 512.831 241.021, 512.477 233.215, 511.929 234.081 C 511.219 235.202, 511.011 235.080, 510.935 233.500 C 510.336 220.997, 508.130 206.475, 505.541 198 C 504.785 195.525, 503.864 191.700, 503.494 189.500 C 503.124 187.300, 502.356 184.938, 501.788 184.250 C 501.220 183.563, 501.018 183, 501.339 183 C 502.133 183, 494.162 160.057, 492.404 157.285 C 491.632 156.067, 491 154.380, 491 153.535 C 491 152.691, 490.550 152, 490 152 C 489.450 152, 489 151.100, 489 150 C 489 148.900, 488.550 148, 488 148 C 487.450 148, 487 147.312, 487 146.470 C 487 144.715, 478.596 128.316, 476.522 126.025 C 475.763 125.186, 475.222 124.275, 475.319 124 C 475.607 123.184, 467.454 110.723, 464.728 107.812 C 463.343 106.333, 462.401 104.932, 462.634 104.699 C 462.868 104.466, 461.729 102.851, 460.104 101.112 C 458.479 99.372, 457.003 97.565, 456.825 97.095 C 455.725 94.205, 433.926 71.238, 424 62.511 C 416.217 55.669, 404.646 47, 403.296 47 C 402.583 47, 402 46.550, 402 46 C 402 45.450, 401.363 45, 400.583 45 C 399.804 45, 399.017 44.663, 398.833 44.250 C 398.258 42.956, 391.387 38.144, 385.831 35.143 C 382.899 33.559, 377.462 30.599, 373.750 28.565 C 370.038 26.531, 366.993 25.234, 366.985 25.683 C 366.976 26.132, 366.639 26.050, 366.235 25.500 C 364.802 23.550, 353.953 18.656, 343 15.018 C 341.625 14.561, 339.600 13.847, 338.500 13.430 C 337.400 13.014, 336.275 12.611, 336 12.535 C 335.725 12.460, 332.800 11.587, 329.500 10.596 C 326.200 9.605, 322.825 8.628, 322 8.426 C 316.900 7.174, 313.370 6.286, 312.500 6.034 C 310.386 5.423, 309.290 5.196, 302.516 3.962 C 298.675 3.262, 293.950 2.566, 292.016 2.415 C 290.082 2.264, 287.375 1.841, 286 1.475 C 282.063 0.428, 236.216 0.132, 229 1.108 M 149.613 129.853 C 148.064 130.598, 146.177 131.298, 145.420 131.409 C 144.662 131.520, 142.908 132.677, 141.522 133.980 C 140.135 135.283, 139 136.013, 139 135.603 C 139 134.577, 136.871 136.896, 134.504 140.500 C 131.143 145.617, 128.729 151.348, 128.396 155 C 127.861 160.875, 130.114 171.249, 132.652 174.594 C 133.944 176.296, 135 178.047, 135 178.484 C 135 180.493, 144.455 186.400, 150.500 188.168 C 163.504 191.970, 177.142 186.535, 184.797 174.500 C 186.196 172.300, 187.284 170.393, 187.214 170.263 C 187.145 170.133, 187.684 168.044, 188.413 165.622 C 189.142 163.200, 189.617 159.706, 189.469 157.859 C 189.103 153.289, 185.451 143.168, 183.275 140.694 C 178.500 135.263, 177.105 134.148, 171.993 131.671 C 165.501 128.526, 154.274 127.614, 149.613 129.853 M 301.113 212.082 C 296.740 213.502, 291.888 215.515, 290.331 216.556 C 288.774 217.597, 287.185 218.460, 286.800 218.474 C 286.087 218.501, 275.521 228.554, 273.250 231.367 C 272.563 232.219, 272 233.329, 272 233.835 C 272 234.341, 271.325 235.315, 270.500 236 C 269.181 237.095, 269 235.785, 269 225.122 L 269 213 243.750 213 L 218.500 213 218.761 298 L 219.022 383 245.011 383 L 271 383 271.122 341.250 C 271.189 318.288, 271.248 298.150, 271.252 296.500 C 271.271 288.477, 273.321 277.042, 275.644 272 C 278.837 265.070, 285.774 258.603, 291.836 256.906 C 294.339 256.205, 299.812 255.632, 303.998 255.632 C 316.801 255.632, 323.281 260.046, 328.025 272 C 330.701 278.743, 330.937 284.283, 330.973 341.250 L 331 383 357.573 383 L 384.147 383 383.715 325.750 C 383.478 294.262, 382.922 266.475, 382.479 264 C 382.037 261.525, 381.635 258.488, 381.587 257.250 C 381.539 256.012, 381.214 255, 380.864 255 C 380.513 255, 379.914 252.909, 379.530 250.353 C 379.147 247.797, 378.477 244.985, 378.042 244.103 C 377.607 243.221, 376.373 240.700, 375.300 238.500 C 372.778 233.329, 370.663 229.629, 369.869 229 C 369.522 228.725, 367.609 226.545, 365.619 224.155 C 363.628 221.766, 362 220.065, 362 220.375 C 362 220.686, 360.414 219.863, 358.475 218.548 C 344.820 209.281, 318.777 206.346, 301.113 212.082 M 132.761 298.233 L 132.500 383.500 159.256 383.219 L 186.011 382.937 185.756 298.219 L 185.500 213.500 159.261 213.233 L 133.022 212.967 132.761 298.233 M 0.232 243 C 0.232 244.925, 0.438 245.713, 0.689 244.750 C 0.941 243.787, 0.941 242.213, 0.689 241.250 C 0.438 240.287, 0.232 241.075, 0.232 243 M 0.395 260.500 C 0.396 268.200, 0.553 271.218, 0.743 267.206 C 0.934 263.195, 0.932 256.895, 0.741 253.206 C 0.549 249.518, 0.393 252.800, 0.395 260.500" stroke="none" fill="#2c7cb4" fill-rule="evenodd"/></svg>